<?xml version="1.0" encoding="utf-8"?>
<svg xmlns="http://www.w3.org/2000/svg" width="32" height="32" viewBox="0 0 32 32">
  <rect x="0.449" y="0.367" width="31.266" height="31.266" rx="6" ry="6" style="fill: rgb(255, 92, 168);"/>
  <path d="M 17.381 1.55 C 18.853 1.51 18.826 2.337 19.193 3.517 L 19.62 4.872 C 19.925 5.846 20.105 6.541 19.911 7.558 C 19.857 7.848 19.782 8.12 19.773 8.42 C 19.725 9.959 21.085 11.157 22.613 10.845 C 23.21 10.723 23.513 10.546 24.172 10.564 C 24.726 10.578 27.624 11.079 28.233 11.302 C 29.166 11.643 29.443 12.797 28.692 13.465 C 28.404 13.723 24.93 15.189 24.179 15.491 C 23.54 15.749 23.083 15.751 22.546 16.25 C 21.279 17.427 21.89 18.539 22.261 19.775 L 23.206 22.82 C 23.351 23.28 23.537 23.785 23.64 24.252 C 23.717 24.697 22.15 26.128 23.472 27.45 C 24.466 28.443 23.973 30.47 22.399 30.389 C 21.064 30.32 20.513 28.65 21.223 27.631 C 21.544 27.17 21.671 27.025 21.704 26.449 C 21.704 25.259 20.582 24.732 19.752 24.041 L 16.829 21.604 C 15.68 20.642 14.892 21.088 13.906 21.854 C 12.729 22.773 11.641 23.784 10.477 24.72 C 9.89 25.192 9.273 25.998 8.414 25.481 C 7.557 24.965 7.868 24.157 8.116 23.394 L 8.528 22.144 C 8.782 21.356 9.038 20.573 9.313 19.794 C 9.763 18.497 10.017 17.578 11.359 16.912 C 12.375 16.411 13.761 16.308 14.395 15.256 C 14.719 14.718 14.816 13.824 14.634 13.221 C 14.149 11.708 12.659 11.052 13.422 8.876 C 13.733 7.988 14.607 7.568 14.986 6.726 C 15.2 6.247 15.302 5.751 15.458 5.254 C 15.688 4.579 15.943 3.906 16.177 3.233 C 16.429 2.516 16.498 1.746 17.381 1.55 Z" style="fill: rgb(255, 255, 255);"/>
  <path d="M 5.146 9.883 C 6.24 9.854 9.136 10.037 9.932 10.417 C 11.677 11.252 13.008 14.125 10.659 14.916 C 8.794 15.558 7.2 13.879 5.888 12.904 C 5.457 12.554 4.911 12.335 4.492 11.975 C 3.655 11.255 3.973 9.96 5.146 9.883 Z" style="fill: rgb(255, 255, 255);"/>
  <path d="M 25.447 4.335 C 27.252 4.142 27.85 6.754 25.496 7.596 C 25.146 7.721 24.782 7.903 24.431 8.053 C 24.142 8.219 23.591 8.346 23.309 8.117 C 22.772 7.674 23.341 6.869 23.542 6.393 C 23.943 5.456 24.274 4.482 25.447 4.335 Z" style="fill: rgb(255, 255, 255);"/>
  <path d="M 8.85 3.479 C 10.215 3.353 10.615 4.694 10.995 5.725 C 11.227 6.279 11.845 7.131 10.928 7.443 C 10.664 7.533 10.461 7.441 10.228 7.325 C 9.268 6.723 7.693 6.513 7.533 5.194 C 7.415 4.214 7.885 3.616 8.85 3.479 Z" style="fill: rgb(255, 255, 255);"/>
  <path d="M 5.943 17.071 C 6.474 16.982 6.925 17.433 6.743 17.956 C 6.604 18.358 6.181 18.567 5.921 18.9 C 5.268 19.737 4.817 20.707 3.461 20.221 C 2.546 19.842 2.264 18.785 2.814 17.955 C 3.309 17.211 5.031 17.201 5.943 17.071 Z" style="fill: rgb(255, 255, 255);"/>
</svg>